<svg xmlns="http://www.w3.org/2000/svg" viewBox="0 0 256 289">
  <path d="M128 288.464c-3.975 0-7.685-1.06-11.13-2.915l-35.247-20.936c-5.3-2.915-2.65-3.975-1.06-4.505 7.155-2.385 8.48-2.915 15.9-7.155.796-.53 1.856-.265 2.65.265l27.032 16.166c1.06.53 2.385.53 3.18 0l105.74-61.217c1.06-.53 1.59-1.59 1.59-2.915V83.08c0-1.325-.53-2.385-1.59-2.915L129.06 19.213c-1.06-.53-2.385-.53-3.18 0L20.14 80.165c-1.06.53-1.59 1.856-1.59 2.915v122.17c0 1.06.53 2.385 1.59 2.915l28.887 16.696c15.636 7.95 25.44-1.325 25.44-10.6V93.68c0-1.59 1.325-3.18 3.18-3.18h13.25c1.59 0 3.18 1.325 3.18 3.18v120.58c0 20.936-11.396 33.126-31.272 33.126-6.095 0-10.865 0-24.38-6.625L10.6 224.065C4.24 220.356 0 213.466 0 206.046V83.876c0-7.42 4.24-14.31 10.6-18.02L116.34 4.64c6.095-3.445 14.31-3.445 20.405 0L243.135 65.86c6.36 3.71 10.6 10.6 10.6 18.02v122.17c0 7.42-4.24 14.575-10.6 18.02l-106.27 61.22c-3.18 1.855-6.89 2.915-10.865 2.915" fill="#539e43"/>
  <path d="M159.903 204.486c-49.556 0-59.89-22.79-59.89-41.875 0-1.59 1.324-3.18 3.18-3.18h13.515c1.59 0 2.915 1.06 2.915 2.65 2.12 14.045 8.215 20.936 36.307 20.936 22.26 0 31.802-5.035 31.802-16.96 0-6.892-2.65-11.927-37.367-15.372-28.887-2.915-46.908-9.275-46.908-32.33 0-21.467 18.02-34.187 48.232-34.187 33.92 0 50.616 11.66 52.737 37.102 0 .795-.265 1.59-.795 2.385-.53.53-1.325 1.06-2.12 1.06h-13.78c-1.325 0-2.65-1.06-2.915-2.385-3.18-14.575-11.396-19.345-33.126-19.345-24.38 0-27.296 8.48-27.296 14.84 0 7.685 3.445 10.07 36.307 14.31 32.597 4.24 47.968 10.335 47.968 33.126-.265 23.32-19.345 36.572-53.002 36.572" fill="#539e43"/>
</svg>
